<mxfile host="65bd71144e">
    <diagram id="6EFSu4ZstcDFo1c1iw8K" name="Page-1">
        <mxGraphModel dx="1414" dy="478" grid="1" gridSize="10" guides="1" tooltips="1" connect="1" arrows="1" fold="1" page="1" pageScale="1" pageWidth="850" pageHeight="1100" background="#000000" math="0" shadow="0">
            <root>
                <mxCell id="0"/>
                <mxCell id="1" parent="0"/>
                <mxCell id="2" value="&lt;font style=&quot;font-size: 32px&quot;&gt;3&lt;/font&gt;" style="rounded=0;whiteSpace=wrap;html=1;" vertex="1" parent="1">
                    <mxGeometry x="-540" y="110" width="110" height="50" as="geometry"/>
                </mxCell>
                <mxCell id="15" value="" style="edgeStyle=none;html=1;fontFamily=Times New Roman;fontSize=32;strokeWidth=4;" edge="1" parent="1" source="3" target="2">
                    <mxGeometry relative="1" as="geometry"/>
                </mxCell>
                <mxCell id="3" value="&lt;span style=&quot;font-family: &amp;#34;times new roman&amp;#34; ; font-size: 28px&quot;&gt;100&lt;/span&gt;" style="rounded=0;whiteSpace=wrap;html=1;" vertex="1" parent="1">
                    <mxGeometry x="-380" y="110" width="110" height="50" as="geometry"/>
                </mxCell>
                <mxCell id="4" value="a" style="text;html=1;align=center;verticalAlign=middle;whiteSpace=wrap;rounded=0;fillColor=#f8cecc;strokeColor=#b85450;strokeWidth=0;gradientColor=none;fontFamily=Times New Roman;fontSize=28;" vertex="1" parent="1">
                    <mxGeometry x="-485" y="60" width="60" height="30" as="geometry"/>
                </mxCell>
                <mxCell id="5" value="" style="edgeStyle=none;html=1;" edge="1" parent="1" source="2" target="4">
                    <mxGeometry relative="1" as="geometry"/>
                </mxCell>
                <mxCell id="14" style="edgeStyle=none;html=1;exitX=0;exitY=0.5;exitDx=0;exitDy=0;entryX=1;entryY=0.5;entryDx=0;entryDy=0;fontFamily=Times New Roman;fontSize=32;strokeWidth=4;fillColor=#ffe6cc;strokeColor=#FFFFFF;" edge="1" parent="1" source="6" target="11">
                    <mxGeometry relative="1" as="geometry">
                        <Array as="points">
                            <mxPoint x="-400" y="75"/>
                            <mxPoint x="-400" y="185"/>
                        </Array>
                    </mxGeometry>
                </mxCell>
                <mxCell id="6" value="Text" style="text;html=1;strokeColor=none;fillColor=none;align=center;verticalAlign=middle;whiteSpace=wrap;rounded=0;" vertex="1" parent="1">
                    <mxGeometry x="-320" y="60" width="60" height="30" as="geometry"/>
                </mxCell>
                <mxCell id="8" value="p" style="text;html=1;strokeColor=#b85450;fillColor=#f8cecc;align=center;verticalAlign=middle;whiteSpace=wrap;rounded=0;fontFamily=Times New Roman;fontSize=28;" vertex="1" parent="1">
                    <mxGeometry x="-320" y="60" width="60" height="30" as="geometry"/>
                </mxCell>
                <mxCell id="9" value="200" style="rounded=0;whiteSpace=wrap;html=1;fontFamily=Times New Roman;fontSize=28;strokeWidth=0;gradientColor=none;" vertex="1" parent="1">
                    <mxGeometry x="-210" y="110" width="110" height="50" as="geometry"/>
                </mxCell>
                <mxCell id="10" value="q" style="text;html=1;strokeColor=#b85450;fillColor=#f8cecc;align=center;verticalAlign=middle;whiteSpace=wrap;rounded=0;fontFamily=Times New Roman;fontSize=28;" vertex="1" parent="1">
                    <mxGeometry x="-150" y="60" width="60" height="30" as="geometry"/>
                </mxCell>
                <mxCell id="11" value="100" style="text;html=1;strokeColor=#b85450;fillColor=#f8cecc;align=center;verticalAlign=middle;whiteSpace=wrap;rounded=0;fontFamily=Times New Roman;fontSize=32;" vertex="1" parent="1">
                    <mxGeometry x="-540" y="170" width="60" height="30" as="geometry"/>
                </mxCell>
                <mxCell id="12" value="200" style="text;html=1;strokeColor=#b85450;fillColor=#f8cecc;align=center;verticalAlign=middle;whiteSpace=wrap;rounded=0;fontFamily=Times New Roman;fontSize=32;" vertex="1" parent="1">
                    <mxGeometry x="-380" y="170" width="60" height="30" as="geometry"/>
                </mxCell>
                <mxCell id="13" value="300" style="text;html=1;strokeColor=#b85450;fillColor=#f8cecc;align=center;verticalAlign=middle;whiteSpace=wrap;rounded=0;fontFamily=Times New Roman;fontSize=32;" vertex="1" parent="1">
                    <mxGeometry x="-200" y="170" width="60" height="30" as="geometry"/>
                </mxCell>
                <mxCell id="16" style="edgeStyle=none;html=1;exitX=0;exitY=0.5;exitDx=0;exitDy=0;entryX=1;entryY=0.5;entryDx=0;entryDy=0;fontFamily=Times New Roman;fontSize=32;strokeWidth=4;fillColor=#ffe6cc;strokeColor=#FFFFFF;" edge="1" parent="1" source="10">
                    <mxGeometry relative="1" as="geometry">
                        <mxPoint x="-160" y="75" as="sourcePoint"/>
                        <mxPoint x="-320" y="185" as="targetPoint"/>
                        <Array as="points">
                            <mxPoint x="-240" y="75"/>
                            <mxPoint x="-240" y="185"/>
                        </Array>
                    </mxGeometry>
                </mxCell>
            </root>
        </mxGraphModel>
    </diagram>
</mxfile>